<svg xmlns="http://www.w3.org/2000/svg" width="37.533" height="37.322" viewBox="0 0 37.533 37.322">
  <defs>
    <style>
      .cls-1, .cls-2 {
        opacity: 0.8;
      }

      .cls-2 {
        fill: none;
      }

      .cls-3 {
        fill: #fff;
      }
    </style>
  </defs>
  <g id="Icon_awesome-arrow-left_1" data-name="Icon awesome-arrow-left 1" class="cls-1" transform="matrix(0, -1, 1, 0, 1.723, 37.322)">
    <rect id="Icon_awesome-arrow-left_1-2" data-name="Icon awesome-arrow-left 1" class="cls-2" width="37.321" height="35.81"/>
    <path id="Icon_awesome-arrow-left" data-name="Icon awesome-arrow-left" class="cls-3" d="M21.227,33.772l-1.83,1.84a1.963,1.963,0,0,1-2.794,0L.581,19.51a1.988,1.988,0,0,1,0-2.81L16.6.584a1.963,1.963,0,0,1,2.794,0l1.829,1.835a2,2,0,0,1-.033,2.843l-9.937,9.519H34.951a1.967,1.967,0,0,1,1.4.581,1.989,1.989,0,0,1,.578,1.407v2.652a1.989,1.989,0,0,1-.577,1.408,1.967,1.967,0,0,1-1.4.581H11.257l9.932,9.514a1.984,1.984,0,0,1,.038,2.846Z" transform="matrix(0, -1, 1, 0, 0.563, 35.205)"/>
  </g>
</svg>
