<svg xmlns="http://www.w3.org/2000/svg" width="39.992" height="39.992" viewBox="0 0 39.992 39.992">
  <defs>
    <style>
      .cls-1 {
        fill: #fff;
      }
    </style>
  </defs>
  <path id="Icon_awesome-instagram" data-name="Icon awesome-instagram" class="cls-1" d="M23.925,10.512A10.278,10.278,0,1,1,20,9.736a10.237,10.237,0,0,1,3.926.776Zm.783,14.19A6.654,6.654,0,1,0,20,26.659,6.68,6.68,0,0,0,24.708,24.7ZM33.063,9.317a2.387,2.387,0,1,1-.181-.916,2.392,2.392,0,0,1,.181.916Zm6.788,2.431c.188,3.3.188,13.194,0,16.495a11.917,11.917,0,0,1-3.23,8.378,11.833,11.833,0,0,1-8.376,3.231c-3.3.188-13.2.188-16.5,0a11.928,11.928,0,0,1-8.376-3.231,11.839,11.839,0,0,1-3.23-8.378c-.188-3.3-.188-13.2,0-16.5a11.878,11.878,0,0,1,3.23-8.378A11.894,11.894,0,0,1,11.747.141c3.3-.188,13.2-.188,16.5,0a11.912,11.912,0,0,1,8.376,3.231,11.839,11.839,0,0,1,3.23,8.378Zm-3.46,8.243c0-2.9.241-9.157-.8-11.79a6.75,6.75,0,0,0-3.807-3.808c-2.623-1.036-8.884-.8-11.788-.8s-9.155-.241-11.788.8A6.75,6.75,0,0,0,4.4,8.2c-1.036,2.624-.8,8.886-.8,11.79s-.241,9.157.8,11.79A6.75,6.75,0,0,0,8.206,35.59c2.623,1.036,8.884.8,11.788.8s9.155.241,11.788-.8a6.75,6.75,0,0,0,3.807-3.808c1.043-2.624.8-8.886.8-11.79Z" transform="translate(0 0)"/>
</svg>
