<svg xmlns="http://www.w3.org/2000/svg" width="67.009" height="48.053" viewBox="0 0 67.009 48.053">
  <defs>
    <style>
      .cls-1 {
        fill: none;
      }

      .cls-2 {
        fill: #fff;
      }

      .cls-3 {
        fill: #f50e0e;
      }
    </style>
  </defs>
  <g id="Icon_metro-youtube-play_1" data-name="Icon metro-youtube-play 1" transform="translate(0.009 0.026)">
    <rect id="Icon_metro-youtube-play_1-2" data-name="Icon metro-youtube-play 1" class="cls-1" width="67" height="48"/>
    <path id="Icon_metro-youtube-play" data-name="Icon metro-youtube-play" class="cls-2" d="M47.864,24.027A2.16,2.16,0,0,0,46.743,22L27.6,10a2.354,2.354,0,0,0-3.664,2.026v24a2.236,2.236,0,0,0,1.234,2.1,2.581,2.581,0,0,0,1.16.3,2.126,2.126,0,0,0,1.271-.375l19.143-12a2.16,2.16,0,0,0,1.121-2.026Zm19.143,0q0,3.6-.037,5.625t-.317,5.119a41.594,41.594,0,0,1-.841,5.531,8.779,8.779,0,0,1-2.58,4.612,7.874,7.874,0,0,1-4.637,2.178,244.389,244.389,0,0,1-25.087.937A244.391,244.391,0,0,1,8.42,47.092a7.958,7.958,0,0,1-4.654-2.178A8.72,8.72,0,0,1,1.158,40.3a46.546,46.546,0,0,1-.8-5.531Q.074,31.68.037,29.654T0,24.03q0-3.6.037-5.625t.317-5.119a41.6,41.6,0,0,1,.841-5.531A8.779,8.779,0,0,1,3.783,3.139,7.874,7.874,0,0,1,8.42.961,244.392,244.392,0,0,1,33.508.024,244.386,244.386,0,0,1,58.595.961a7.958,7.958,0,0,1,4.654,2.178,8.72,8.72,0,0,1,2.606,4.612,46.549,46.549,0,0,1,.8,5.531q.28,3.093.317,5.119t.03,5.627Z" transform="translate(-0.009 -0.026)"/>
    <rect id="Rectangle_67" data-name="Rectangle 67" class="cls-2" width="29" height="31" transform="translate(21 10)"/>
    <g id="Icon_metro-youtube-play_2" data-name="Icon metro-youtube-play 2">
      <rect id="Icon_metro-youtube-play_2-2" data-name="Icon metro-youtube-play 2" class="cls-1" width="67" height="48"/>
      <path id="Icon_metro-youtube-play-2" data-name="Icon metro-youtube-play" class="cls-3" d="M47.864,24.027A2.16,2.16,0,0,0,46.743,22L27.6,10a2.354,2.354,0,0,0-3.664,2.026v24a2.236,2.236,0,0,0,1.234,2.1,2.581,2.581,0,0,0,1.16.3,2.126,2.126,0,0,0,1.271-.375l19.143-12a2.16,2.16,0,0,0,1.121-2.026Zm19.143,0q0,3.6-.037,5.625t-.317,5.119a41.594,41.594,0,0,1-.841,5.531,8.779,8.779,0,0,1-2.58,4.612,7.874,7.874,0,0,1-4.637,2.178,244.389,244.389,0,0,1-25.087.937A244.391,244.391,0,0,1,8.42,47.092a7.958,7.958,0,0,1-4.654-2.178A8.72,8.72,0,0,1,1.158,40.3a46.546,46.546,0,0,1-.8-5.531Q.074,31.68.037,29.654T0,24.03q0-3.6.037-5.625t.317-5.119a41.6,41.6,0,0,1,.841-5.531A8.779,8.779,0,0,1,3.783,3.139,7.874,7.874,0,0,1,8.42.961,244.392,244.392,0,0,1,33.508.024,244.386,244.386,0,0,1,58.595.961a7.958,7.958,0,0,1,4.654,2.178,8.72,8.72,0,0,1,2.606,4.612,46.549,46.549,0,0,1,.8,5.531q.28,3.093.317,5.119t.03,5.627Z" transform="translate(-0.009 -0.026)"/>
    </g>
  </g>
</svg>
