<svg xmlns="http://www.w3.org/2000/svg" width="19.28" height="29.98" viewBox="0 0 19.28 29.98">
  <defs>
    <style>
      .cls-1 {
        fill: #fff;
      }
    </style>
  </defs>
  <path id="Icon_metro-location" data-name="Icon metro-location" class="cls-1" d="M9.64,0a9.783,9.783,0,0,1,6.817,2.744A9.237,9.237,0,0,1,19.28,9.369c0,9.369-9.64,20.612-9.64,20.612S0,18.738,0,9.369A9.237,9.237,0,0,1,2.824,2.744,9.783,9.783,0,0,1,9.64,0Zm0,15.108a6.049,6.049,0,0,0,2.258-.436,5.914,5.914,0,0,0,1.914-1.243,5.726,5.726,0,0,0,1.279-1.86,5.594,5.594,0,0,0-.545-5.38A5.867,5.867,0,0,0,11.9,4.076,6.059,6.059,0,0,0,8.489,3.75,5.955,5.955,0,0,0,5.468,5.319,5.686,5.686,0,0,0,3.853,8.255a5.585,5.585,0,0,0,.336,3.313,5.773,5.773,0,0,0,2.173,2.573,6.022,6.022,0,0,0,3.278.966ZM5.9,9.374a3.558,3.558,0,0,1,.625-2.02A3.715,3.715,0,0,1,8.2,6.013a3.836,3.836,0,0,1,2.159-.21,3.771,3.771,0,0,1,1.915.992A3.6,3.6,0,0,1,13.3,8.653a3.536,3.536,0,0,1-.211,2.1,3.655,3.655,0,0,1-1.376,1.631A3.818,3.818,0,0,1,7,11.934,3.58,3.58,0,0,1,5.9,9.369Z"/>
</svg>
