<svg xmlns="http://www.w3.org/2000/svg" width="52" height="52" viewBox="0 0 52 52"><defs><style>.a{fill:none;}.b{fill:#fff;}</style></defs><g transform="translate(-1631 -57)"><circle cx="26" cy="26" r="26" transform="translate(1631 57)"/><g transform="translate(1639 64)"><rect class="a" width="37.676" height="37.676"/><path class="b" d="M18.839,9.419a9.419,9.419,0,1,1-5.233,1.587,9.419,9.419,0,0,1,5.233-1.587Zm0,15.306a5.887,5.887,0,1,0,0-11.774V24.725Zm0,5.887a2.355,2.355,0,0,1,2.355,2.355v2.355a2.355,2.355,0,1,1-4.71,0V32.967a2.355,2.355,0,0,1,2.355-2.355Zm0-23.548a2.355,2.355,0,0,1-2.355-2.355V2.355a2.355,2.355,0,1,1,4.71,0V4.71a2.355,2.355,0,0,1-2.355,2.354Zm16.483,9.419a2.355,2.355,0,1,1,0,4.71H32.967a2.355,2.355,0,0,1,0-4.71ZM7.065,18.838A2.355,2.355,0,0,1,4.71,21.193H2.355a2.355,2.355,0,1,1,0-4.71H4.71a2.355,2.355,0,0,1,2.355,2.355Zm23.429,8.325,1.665,1.665a2.355,2.355,0,1,1-3.33,3.33l-1.665-1.665a2.355,2.355,0,0,1,3.33-3.33ZM7.183,10.513,5.518,8.848a2.355,2.355,0,0,1,3.33-3.33l1.665,1.665a2.355,2.355,0,1,1-3.33,3.33Zm23.311,0a2.355,2.355,0,0,1-3.33-3.33L28.83,5.518a2.355,2.355,0,0,1,3.33,3.33ZM7.183,27.163a2.355,2.355,0,0,1,3.33,3.33L8.848,32.158a2.355,2.355,0,0,1-3.33-3.33Z" transform="translate(-0.001 0)"/></g></g></svg>